<?xml version="1.0" encoding="UTF-8"?>
<svg width="800" height="200" xmlns="http://www.w3.org/2000/svg">
  <defs>
    <style>
      <![CDATA[
        @import url('https://fonts.googleapis.com/css2?family=Kaisei+Decol:wght@400;700&display=swap');
        .title-text {
          font-family: 'Kaisei Decol', serif;
          font-weight: 700;
        }
      ]]>
    </style>

    <!-- 背景グラデーション（青系） -->
    <linearGradient id="bgGradient" x1="0%" y1="0%" x2="100%" y2="100%">
      <stop offset="0%" style="stop-color:#e0f2fe">
        <animate attributeName="stop-color" 
                 values="#e0f2fe;#bae6fd;#e0f2fe" 
                 dur="8s" 
                 repeatCount="indefinite"/>
      </stop>
      <stop offset="100%" style="stop-color:#bae6fd">
        <animate attributeName="stop-color" 
                 values="#bae6fd;#7dd3fc;#bae6fd" 
                 dur="8s" 
                 repeatCount="indefinite"/>
      </stop>
    </linearGradient>

    <!-- テキストグラデーション -->
    <linearGradient id="textGradient" x1="0%" y1="0%" x2="100%" y2="0%">
      <stop offset="0%" style="stop-color:#0369a1">
        <animate attributeName="stop-color" 
                 values="#0369a1;#0284c7;#0369a1" 
                 dur="4s" 
                 repeatCount="indefinite"/>
      </stop>
      <stop offset="100%" style="stop-color:#0284c7">
        <animate attributeName="stop-color" 
                 values="#0284c7;#0ea5e9;#0284c7" 
                 dur="4s" 
                 repeatCount="indefinite"/>
      </stop>
    </linearGradient>

    <!-- グロー効果 -->
    <filter id="glow" x="-20%" y="-20%" width="140%" height="140%">
      <feGaussianBlur in="SourceGraphic" stdDeviation="2"/>
      <feComponentTransfer>
        <feFuncA type="linear" slope="0.6"/>
      </feComponentTransfer>
      <feMerge>
        <feMergeNode/>
        <feMergeNode in="SourceGraphic"/>
      </feMerge>
    </filter>
  </defs>

  <!-- 背景（角丸） -->
  <rect width="800" height="200" rx="40" ry="40" fill="url(#bgGradient)"/>

  <!-- 装飾的な波線 -->
  <path d="M0,100 Q200,80 400,100 T800,100" 
        stroke="url(#textGradient)" 
        stroke-width="2" 
        fill="none" 
        opacity="0.3">
    <animate attributeName="d" 
             values="M0,100 Q200,80 400,100 T800,100;M0,100 Q200,120 400,100 T800,100;M0,100 Q200,80 400,100 T800,100" 
             dur="10s" 
             repeatCount="indefinite"/>
  </path>

  <!-- クラウドとデータベースのアイコン -->
  <g transform="translate(50,40) scale(0.8)" filter="url(#glow)">
    <!-- クラウド -->
    <path d="M60,40 
             A20,20 0 0,1 80,60 
             A30,30 0 0,1 110,90
             A20,20 0 0,1 90,110
             H50
             A20,20 0 0,1 30,90
             A30,30 0 0,1 60,40" 
          fill="#0ea5e9"/>
    
    <!-- データベース -->
    <ellipse cx="70" cy="70" rx="25" ry="10" fill="#0369a1"/>
    <path d="M45,70 V100 Q70,110 95,100 V70" fill="#0369a1"/>
    <ellipse cx="70" cy="100" rx="25" ry="10" fill="#0369a1"/>
  </g>

  <!-- タイトル -->
  <text x="200" y="100" class="title-text" font-size="48" fill="url(#textGradient)" filter="url(#glow)">
    インフラストラクチャ
  </text>
  <text x="200" y="140" class="title-text" font-size="24" fill="url(#textGradient)" opacity="0.8">
    AWS Infrastructure
  </text>
</svg>
